<svg width="218" height="32" viewBox="0 0 218 32" fill="none" xmlns="http://www.w3.org/2000/svg">
<path d="M8.19888 7.72C10.7162 7.72 12.6362 8.328 13.9589 9.544C15.3029 10.7387 15.9749 12.552 15.9749 14.984V25H12.1989V22.92C11.7082 23.6667 11.0042 24.2427 10.0869 24.648C9.19088 25.032 8.10288 25.224 6.82288 25.224C5.54288 25.224 4.42288 25.0107 3.46288 24.584C2.50288 24.136 1.75621 23.528 1.22288 22.76C0.710875 21.9707 0.454875 21.0853 0.454875 20.104C0.454875 18.568 1.02021 17.3413 2.15088 16.424C3.30288 15.4853 5.10554 15.016 7.55888 15.016H11.9749V14.76C11.9749 13.5653 11.6122 12.648 10.8869 12.008C10.1829 11.368 9.12688 11.048 7.71888 11.048C6.75888 11.048 5.80954 11.1973 4.87088 11.496C3.95354 11.7947 3.17488 12.2107 2.53488 12.744L0.966875 9.832C1.86288 9.14933 2.94021 8.62667 4.19888 8.264C5.45754 7.90133 6.79088 7.72 8.19888 7.72ZM7.65488 22.312C8.65754 22.312 9.54288 22.088 10.3109 21.64C11.1002 21.1707 11.6549 20.5093 11.9749 19.656V17.672H7.84688C5.54288 17.672 4.39088 18.4293 4.39088 19.944C4.39088 20.6693 4.67888 21.2453 5.25488 21.672C5.83088 22.0987 6.63088 22.312 7.65488 22.312ZM21.1084 7.912H25.1084V25H21.1084V7.912ZM23.1244 5.096C22.399 5.096 21.791 4.872 21.3004 4.424C20.8097 3.95467 20.5644 3.37867 20.5644 2.696C20.5644 2.01333 20.8097 1.448 21.3004 0.999998C21.791 0.530666 22.399 0.296 23.1244 0.296C23.8497 0.296 24.4577 0.519999 24.9484 0.967999C25.439 1.39467 25.6844 1.93867 25.6844 2.6C25.6844 3.304 25.439 3.90133 24.9484 4.392C24.479 4.86133 23.871 5.096 23.1244 5.096ZM29.4944 14.44H38.2944V17.768H29.4944V14.44ZM50.8234 25.224C49.0527 25.224 47.4634 24.8507 46.0554 24.104C44.6474 23.3573 43.5487 22.3227 42.7594 21C41.97 19.656 41.5754 18.1413 41.5754 16.456C41.5754 14.7707 41.97 13.2667 42.7594 11.944C43.5487 10.6213 44.6367 9.58667 46.0234 8.84C47.4314 8.09333 49.0314 7.72 50.8234 7.72C52.5087 7.72 53.9807 8.06133 55.2394 8.744C56.5194 9.42667 57.4794 10.408 58.1194 11.688L55.0474 13.48C54.5567 12.6907 53.938 12.104 53.1914 11.72C52.466 11.3147 51.666 11.112 50.7914 11.112C49.298 11.112 48.0607 11.6027 47.0794 12.584C46.098 13.544 45.6074 14.8347 45.6074 16.456C45.6074 18.0773 46.0874 19.3787 47.0474 20.36C48.0287 21.32 49.2767 21.8 50.7914 21.8C51.666 21.8 52.466 21.608 53.1914 21.224C53.938 20.8187 54.5567 20.2213 55.0474 19.432L58.1194 21.224C57.458 22.504 56.4874 23.496 55.2074 24.2C53.9487 24.8827 52.4874 25.224 50.8234 25.224ZM61.4209 1.256H65.4209V25H61.4209V1.256ZM87.2149 7.912V25H83.4069V22.824C82.7669 23.592 81.9669 24.1893 81.0069 24.616C80.0469 25.0213 79.0122 25.224 77.9029 25.224C75.6202 25.224 73.8175 24.5947 72.4949 23.336C71.1935 22.056 70.5429 20.168 70.5429 17.672V7.912H74.5429V17.128C74.5429 18.664 74.8842 19.816 75.5669 20.584C76.2709 21.3307 77.2629 21.704 78.5429 21.704C79.9722 21.704 81.1029 21.2667 81.9349 20.392C82.7882 19.496 83.2149 18.216 83.2149 16.552V7.912H87.2149ZM101.924 7.72C103.588 7.72 105.071 8.08267 106.372 8.808C107.695 9.53333 108.729 10.5573 109.476 11.88C110.223 13.2027 110.596 14.728 110.596 16.456C110.596 18.184 110.223 19.72 109.476 21.064C108.729 22.3867 107.695 23.4107 106.372 24.136C105.071 24.8613 103.588 25.224 101.924 25.224C100.751 25.224 99.6735 25.0213 98.6921 24.616C97.7321 24.2107 96.9215 23.6027 96.2601 22.792V25H92.4521V1.256H96.4521V9.992C97.1348 9.24533 97.9348 8.68 98.8521 8.296C99.7908 7.912 100.815 7.72 101.924 7.72ZM101.476 21.8C102.948 21.8 104.153 21.3093 105.092 20.328C106.052 19.3467 106.532 18.056 106.532 16.456C106.532 14.856 106.052 13.5653 105.092 12.584C104.153 11.6027 102.948 11.112 101.476 11.112C100.516 11.112 99.6521 11.336 98.8841 11.784C98.1161 12.2107 97.5081 12.8293 97.0601 13.64C96.6121 14.4507 96.3881 15.3893 96.3881 16.456C96.3881 17.5227 96.6121 18.4613 97.0601 19.272C97.5081 20.0827 98.1161 20.712 98.8841 21.16C99.6521 21.5867 100.516 21.8 101.476 21.8ZM115.357 25.224C114.632 25.224 114.013 24.9787 113.501 24.488C112.989 23.976 112.733 23.336 112.733 22.568C112.733 21.7787 112.978 21.1387 113.469 20.648C113.981 20.1573 114.61 19.912 115.357 19.912C116.104 19.912 116.722 20.1573 117.213 20.648C117.725 21.1387 117.981 21.7787 117.981 22.568C117.981 23.336 117.725 23.976 117.213 24.488C116.701 24.9787 116.082 25.224 115.357 25.224Z" fill="white"/>
<path d="M138.85 7.912V22.408C138.85 28.424 135.778 31.432 129.634 31.432C127.991 31.432 126.434 31.2187 124.962 30.792C123.49 30.3867 122.274 29.7893 121.314 29L123.106 25.992C123.852 26.6107 124.791 27.1013 125.922 27.464C127.074 27.848 128.236 28.04 129.41 28.04C131.287 28.04 132.663 27.6133 133.538 26.76C134.412 25.9067 134.85 24.6053 134.85 22.856V21.96C134.167 22.7067 133.335 23.272 132.354 23.656C131.372 24.04 130.295 24.232 129.122 24.232C127.5 24.232 126.028 23.8907 124.706 23.208C123.404 22.504 122.37 21.5227 121.602 20.264C120.855 19.0053 120.482 17.5653 120.482 15.944C120.482 14.3227 120.855 12.8933 121.602 11.656C122.37 10.3973 123.404 9.42667 124.706 8.744C126.028 8.06133 127.5 7.72 129.122 7.72C130.359 7.72 131.479 7.92267 132.482 8.328C133.506 8.73333 134.359 9.352 135.042 10.184V7.912H138.85ZM129.73 20.84C131.244 20.84 132.482 20.392 133.442 19.496C134.423 18.5787 134.914 17.3947 134.914 15.944C134.914 14.5147 134.423 13.352 133.442 12.456C132.482 11.56 131.244 11.112 129.73 11.112C128.194 11.112 126.935 11.56 125.954 12.456C124.994 13.352 124.514 14.5147 124.514 15.944C124.514 17.3947 124.994 18.5787 125.954 19.496C126.935 20.392 128.194 20.84 129.73 20.84ZM147.916 10.408C149.068 8.616 151.095 7.72 153.996 7.72V11.528C153.655 11.464 153.346 11.432 153.068 11.432C151.511 11.432 150.295 11.8907 149.42 12.808C148.546 13.704 148.108 15.0053 148.108 16.712V25H144.108V7.912H147.916V10.408ZM164.913 25.224C163.185 25.224 161.628 24.8507 160.241 24.104C158.855 23.3573 157.767 22.3227 156.977 21C156.209 19.656 155.825 18.1413 155.825 16.456C155.825 14.7707 156.209 13.2667 156.977 11.944C157.767 10.6213 158.855 9.58667 160.241 8.84C161.628 8.09333 163.185 7.72 164.913 7.72C166.663 7.72 168.231 8.09333 169.617 8.84C171.004 9.58667 172.081 10.6213 172.849 11.944C173.639 13.2667 174.033 14.7707 174.033 16.456C174.033 18.1413 173.639 19.656 172.849 21C172.081 22.3227 171.004 23.3573 169.617 24.104C168.231 24.8507 166.663 25.224 164.913 25.224ZM164.913 21.8C166.385 21.8 167.601 21.3093 168.561 20.328C169.521 19.3467 170.001 18.056 170.001 16.456C170.001 14.856 169.521 13.5653 168.561 12.584C167.601 11.6027 166.385 11.112 164.913 11.112C163.441 11.112 162.225 11.6027 161.265 12.584C160.327 13.5653 159.857 14.856 159.857 16.456C159.857 18.056 160.327 19.3467 161.265 20.328C162.225 21.3093 163.441 21.8 164.913 21.8ZM194.402 7.912V25H190.594V22.824C189.954 23.592 189.154 24.1893 188.194 24.616C187.234 25.0213 186.2 25.224 185.09 25.224C182.808 25.224 181.005 24.5947 179.682 23.336C178.381 22.056 177.73 20.168 177.73 17.672V7.912H181.73V17.128C181.73 18.664 182.072 19.816 182.754 20.584C183.458 21.3307 184.45 21.704 185.73 21.704C187.16 21.704 188.29 21.2667 189.122 20.392C189.976 19.496 190.402 18.216 190.402 16.552V7.912H194.402ZM209.112 7.72C210.776 7.72 212.258 8.08267 213.56 8.808C214.882 9.53333 215.917 10.5573 216.664 11.88C217.41 13.2027 217.784 14.728 217.784 16.456C217.784 18.184 217.41 19.72 216.664 21.064C215.917 22.3867 214.882 23.4107 213.56 24.136C212.258 24.8613 210.776 25.224 209.112 25.224C206.808 25.224 204.984 24.456 203.64 22.92V31.208H199.64V7.912H203.448V10.152C204.109 9.34133 204.92 8.73333 205.88 8.328C206.861 7.92267 207.938 7.72 209.112 7.72ZM208.664 21.8C210.136 21.8 211.341 21.3093 212.28 20.328C213.24 19.3467 213.72 18.056 213.72 16.456C213.72 14.856 213.24 13.5653 212.28 12.584C211.341 11.6027 210.136 11.112 208.664 11.112C207.704 11.112 206.84 11.336 206.072 11.784C205.304 12.2107 204.696 12.8293 204.248 13.64C203.8 14.4507 203.576 15.3893 203.576 16.456C203.576 17.5227 203.8 18.4613 204.248 19.272C204.696 20.0827 205.304 20.712 206.072 21.16C206.84 21.5867 207.704 21.8 208.664 21.8Z" fill="#EB4549"/>
</svg>
