<svg width="14" height="12" viewBox="0 0 14 12" fill="none" xmlns="http://www.w3.org/2000/svg">
<path d="M0.333497 3.99601C0.333146 3.47081 0.436398 2.9507 0.637341 2.46546C0.838285 1.98023 1.13297 1.53939 1.50453 1.16821C1.87609 0.797023 2.31721 0.502777 2.80265 0.302319C3.28809 0.101861 3.8083 -0.000871342 4.3335 5.56683e-06H9.66683C11.8755 5.56683e-06 13.6668 1.79667 13.6668 3.99601V12H4.3335C2.12483 12 0.333497 10.2033 0.333497 8.004V3.99601ZM12.3335 10.6667V3.99601C12.3317 3.28967 12.0501 2.61283 11.5503 2.11375C11.0504 1.61467 10.3732 1.33404 9.66683 1.33334H4.3335C3.9834 1.33246 3.63656 1.4007 3.31289 1.53416C2.98922 1.66761 2.69508 1.86364 2.44734 2.11102C2.19959 2.35839 2.00312 2.65224 1.86918 2.97571C1.73524 3.29918 1.66648 3.6459 1.66683 3.99601V8.004C1.66859 8.71034 1.95024 9.38718 2.45007 9.88626C2.9499 10.3853 3.62716 10.666 4.3335 10.6667H12.3335ZM8.3335 5.33334H9.66683V6.66667H8.3335V5.33334ZM4.3335 5.33334H5.66683V6.66667H4.3335V5.33334Z" fill="white"/>
</svg>
